<mxfile host="app.diagrams.net" modified="2023-02-20T16:25:14.011Z" agent="5.0 (Windows NT 10.0; Win64; x64) AppleWebKit/537.36 (KHTML, like Gecko) Chrome/110.0.0.0 Safari/537.36" etag="jz_w0rbnJ5qEMEPC74Nz" version="20.8.20" type="github">
  <diagram id="R2lEEEUBdFMjLlhIrx00" name="Page-1">
    <mxGraphModel dx="1303" dy="750" grid="1" gridSize="10" guides="1" tooltips="1" connect="1" arrows="1" fold="1" page="1" pageScale="1" pageWidth="850" pageHeight="1100" math="0" shadow="0" extFonts="Permanent Marker^https://fonts.googleapis.com/css?family=Permanent+Marker">
      <root>
        <mxCell id="0" />
        <mxCell id="1" parent="0" />
        <mxCell id="zaymkeU8T_Axa2zSOyoV-1" value="Kund" style="rounded=0;whiteSpace=wrap;html=1;" vertex="1" parent="1">
          <mxGeometry x="190" y="130" width="100" height="50" as="geometry" />
        </mxCell>
        <mxCell id="zaymkeU8T_Axa2zSOyoV-2" value="Produkt" style="rounded=0;whiteSpace=wrap;html=1;" vertex="1" parent="1">
          <mxGeometry x="520" y="120" width="140" height="80" as="geometry" />
        </mxCell>
        <mxCell id="zaymkeU8T_Axa2zSOyoV-3" value="Produktkategori&lt;br&gt;" style="rounded=0;whiteSpace=wrap;html=1;" vertex="1" parent="1">
          <mxGeometry x="510" y="290" width="140" height="80" as="geometry" />
        </mxCell>
        <mxCell id="zaymkeU8T_Axa2zSOyoV-5" value="Produktkategori&lt;br&gt;" style="rounded=0;whiteSpace=wrap;html=1;" vertex="1" parent="1">
          <mxGeometry x="340" y="250" width="140" height="80" as="geometry" />
        </mxCell>
        <mxCell id="zaymkeU8T_Axa2zSOyoV-6" value="Kundnummer" style="ellipse;whiteSpace=wrap;html=1;" vertex="1" parent="1">
          <mxGeometry x="90" y="30" width="80" height="60" as="geometry" />
        </mxCell>
        <mxCell id="zaymkeU8T_Axa2zSOyoV-7" value="Namn" style="ellipse;whiteSpace=wrap;html=1;" vertex="1" parent="1">
          <mxGeometry x="197.5" y="30" width="62.5" height="50" as="geometry" />
        </mxCell>
        <mxCell id="zaymkeU8T_Axa2zSOyoV-8" value="Adress" style="ellipse;whiteSpace=wrap;html=1;" vertex="1" parent="1">
          <mxGeometry x="40" y="100" width="85" height="70" as="geometry" />
        </mxCell>
        <mxCell id="zaymkeU8T_Axa2zSOyoV-9" value="E-postadress" style="ellipse;whiteSpace=wrap;html=1;" vertex="1" parent="1">
          <mxGeometry x="40" y="180" width="85" height="70" as="geometry" />
        </mxCell>
        <mxCell id="zaymkeU8T_Axa2zSOyoV-10" value="Telefonnummer" style="ellipse;whiteSpace=wrap;html=1;" vertex="1" parent="1">
          <mxGeometry x="290" y="40" width="90" height="70" as="geometry" />
        </mxCell>
        <mxCell id="zaymkeU8T_Axa2zSOyoV-11" value="" style="curved=1;endArrow=classic;html=1;rounded=0;exitX=1;exitY=0;exitDx=0;exitDy=0;entryX=0;entryY=0.5;entryDx=0;entryDy=0;" edge="1" parent="1" source="zaymkeU8T_Axa2zSOyoV-9" target="zaymkeU8T_Axa2zSOyoV-1">
          <mxGeometry width="50" height="50" relative="1" as="geometry">
            <mxPoint x="125" y="210" as="sourcePoint" />
            <mxPoint x="175" y="160" as="targetPoint" />
            <Array as="points">
              <mxPoint x="130" y="170" />
            </Array>
          </mxGeometry>
        </mxCell>
        <mxCell id="zaymkeU8T_Axa2zSOyoV-16" value="" style="curved=1;endArrow=classic;html=1;rounded=0;exitX=1;exitY=0.5;exitDx=0;exitDy=0;entryX=0;entryY=0.5;entryDx=0;entryDy=0;" edge="1" parent="1" source="zaymkeU8T_Axa2zSOyoV-8" target="zaymkeU8T_Axa2zSOyoV-1">
          <mxGeometry width="50" height="50" relative="1" as="geometry">
            <mxPoint x="122" y="200" as="sourcePoint" />
            <mxPoint x="200" y="165" as="targetPoint" />
            <Array as="points">
              <mxPoint x="130" y="150" />
              <mxPoint x="160" y="160" />
            </Array>
          </mxGeometry>
        </mxCell>
        <mxCell id="zaymkeU8T_Axa2zSOyoV-17" value="" style="curved=1;endArrow=classic;html=1;rounded=0;exitX=1;exitY=1;exitDx=0;exitDy=0;entryX=0.5;entryY=0;entryDx=0;entryDy=0;" edge="1" parent="1" source="zaymkeU8T_Axa2zSOyoV-6" target="zaymkeU8T_Axa2zSOyoV-1">
          <mxGeometry width="50" height="50" relative="1" as="geometry">
            <mxPoint x="160" y="130" as="sourcePoint" />
            <mxPoint x="238" y="95" as="targetPoint" />
            <Array as="points">
              <mxPoint x="230" y="100" />
            </Array>
          </mxGeometry>
        </mxCell>
        <mxCell id="zaymkeU8T_Axa2zSOyoV-18" value="" style="curved=1;endArrow=classic;html=1;rounded=0;exitX=0.5;exitY=1;exitDx=0;exitDy=0;entryX=0.5;entryY=0;entryDx=0;entryDy=0;" edge="1" parent="1" source="zaymkeU8T_Axa2zSOyoV-7" target="zaymkeU8T_Axa2zSOyoV-1">
          <mxGeometry width="50" height="50" relative="1" as="geometry">
            <mxPoint x="132" y="210" as="sourcePoint" />
            <mxPoint x="210" y="175" as="targetPoint" />
            <Array as="points">
              <mxPoint x="230" y="100" />
            </Array>
          </mxGeometry>
        </mxCell>
        <mxCell id="zaymkeU8T_Axa2zSOyoV-19" value="" style="curved=1;endArrow=classic;html=1;rounded=0;exitX=0;exitY=1;exitDx=0;exitDy=0;entryX=0.5;entryY=0;entryDx=0;entryDy=0;" edge="1" parent="1" source="zaymkeU8T_Axa2zSOyoV-10" target="zaymkeU8T_Axa2zSOyoV-1">
          <mxGeometry width="50" height="50" relative="1" as="geometry">
            <mxPoint x="312" y="152.5" as="sourcePoint" />
            <mxPoint x="390" y="117.5" as="targetPoint" />
            <Array as="points">
              <mxPoint x="230" y="100" />
            </Array>
          </mxGeometry>
        </mxCell>
        <mxCell id="zaymkeU8T_Axa2zSOyoV-20" value="Artikelnummer" style="ellipse;whiteSpace=wrap;html=1;" vertex="1" parent="1">
          <mxGeometry x="710" y="125" width="90" height="70" as="geometry" />
        </mxCell>
        <mxCell id="zaymkeU8T_Axa2zSOyoV-21" value="BenÃ¤mning" style="ellipse;whiteSpace=wrap;html=1;" vertex="1" parent="1">
          <mxGeometry x="700" y="40" width="90" height="70" as="geometry" />
        </mxCell>
        <mxCell id="zaymkeU8T_Axa2zSOyoV-22" value="Beskrivning" style="ellipse;whiteSpace=wrap;html=1;" vertex="1" parent="1">
          <mxGeometry x="500" y="15" width="90" height="70" as="geometry" />
        </mxCell>
        <mxCell id="zaymkeU8T_Axa2zSOyoV-24" value="Pris" style="ellipse;whiteSpace=wrap;html=1;" vertex="1" parent="1">
          <mxGeometry x="610" y="25" width="70" height="60" as="geometry" />
        </mxCell>
        <mxCell id="zaymkeU8T_Axa2zSOyoV-25" value="" style="curved=1;endArrow=classic;html=1;rounded=0;exitX=0;exitY=0.5;exitDx=0;exitDy=0;entryX=1;entryY=0.5;entryDx=0;entryDy=0;" edge="1" parent="1" source="zaymkeU8T_Axa2zSOyoV-20" target="zaymkeU8T_Axa2zSOyoV-2">
          <mxGeometry width="50" height="50" relative="1" as="geometry">
            <mxPoint x="313" y="110" as="sourcePoint" />
            <mxPoint x="250" y="140" as="targetPoint" />
            <Array as="points" />
          </mxGeometry>
        </mxCell>
        <mxCell id="zaymkeU8T_Axa2zSOyoV-26" value="" style="curved=1;endArrow=classic;html=1;rounded=0;exitX=0;exitY=1;exitDx=0;exitDy=0;entryX=1;entryY=0.5;entryDx=0;entryDy=0;" edge="1" parent="1" source="zaymkeU8T_Axa2zSOyoV-21" target="zaymkeU8T_Axa2zSOyoV-2">
          <mxGeometry width="50" height="50" relative="1" as="geometry">
            <mxPoint x="720" y="170" as="sourcePoint" />
            <mxPoint x="670" y="170" as="targetPoint" />
            <Array as="points">
              <mxPoint x="700" y="140" />
            </Array>
          </mxGeometry>
        </mxCell>
        <mxCell id="zaymkeU8T_Axa2zSOyoV-27" value="" style="curved=1;endArrow=classic;html=1;rounded=0;exitX=0;exitY=1;exitDx=0;exitDy=0;entryX=0.5;entryY=0;entryDx=0;entryDy=0;" edge="1" parent="1" source="zaymkeU8T_Axa2zSOyoV-24" target="zaymkeU8T_Axa2zSOyoV-2">
          <mxGeometry width="50" height="50" relative="1" as="geometry">
            <mxPoint x="720" y="170" as="sourcePoint" />
            <mxPoint x="670" y="170" as="targetPoint" />
            <Array as="points">
              <mxPoint x="590" y="90" />
            </Array>
          </mxGeometry>
        </mxCell>
        <mxCell id="zaymkeU8T_Axa2zSOyoV-28" value="" style="curved=1;endArrow=classic;html=1;rounded=0;exitX=1;exitY=1;exitDx=0;exitDy=0;entryX=0.5;entryY=0;entryDx=0;entryDy=0;" edge="1" parent="1" source="zaymkeU8T_Axa2zSOyoV-22" target="zaymkeU8T_Axa2zSOyoV-2">
          <mxGeometry width="50" height="50" relative="1" as="geometry">
            <mxPoint x="730" y="180" as="sourcePoint" />
            <mxPoint x="680" y="180" as="targetPoint" />
            <Array as="points">
              <mxPoint x="590" y="90" />
            </Array>
          </mxGeometry>
        </mxCell>
        <mxCell id="zaymkeU8T_Axa2zSOyoV-29" value="Kategorier" style="ellipse;whiteSpace=wrap;html=1;" vertex="1" parent="1">
          <mxGeometry x="710" y="290" width="90" height="70" as="geometry" />
        </mxCell>
        <mxCell id="zaymkeU8T_Axa2zSOyoV-30" value="" style="curved=1;endArrow=classic;html=1;rounded=0;exitX=0;exitY=0.5;exitDx=0;exitDy=0;entryX=1;entryY=0.5;entryDx=0;entryDy=0;" edge="1" parent="1" source="zaymkeU8T_Axa2zSOyoV-29" target="zaymkeU8T_Axa2zSOyoV-3">
          <mxGeometry width="50" height="50" relative="1" as="geometry">
            <mxPoint x="720" y="170" as="sourcePoint" />
            <mxPoint x="670" y="170" as="targetPoint" />
            <Array as="points" />
          </mxGeometry>
        </mxCell>
      </root>
    </mxGraphModel>
  </diagram>
</mxfile>
